<svg width="40" height="40" viewBox="0 0 40 40" fill="none" xmlns="http://www.w3.org/2000/svg">
<path d="M3 30.9413L5.52243 34.7424" stroke="white" stroke-width="1.78706" stroke-linecap="round" stroke-linejoin="round"/>
<path d="M16.949 14.0148L26.5355 28.4567" stroke="white" stroke-width="1.78706" stroke-linecap="round" stroke-linejoin="round"/>
<path d="M15.9529 30.7096C17.1113 32.0388 16.9731 34.0554 15.6439 35.2141C14.3151 36.3725 12.2985 36.2343 11.1398 34.9051C11.0509 34.8029 10.9682 34.6952 10.8931 34.5827L9.57544 32.5983" stroke="white" stroke-width="1.78706" stroke-linecap="round" stroke-linejoin="round"/>
<path fill-rule="evenodd" clip-rule="evenodd" d="M26.0319 27.6956L5.01726 33.9812L3.50464 31.7008L17.4521 14.774L26.0319 27.6956Z" fill="#F9AD13"/>
<path fill-rule="evenodd" clip-rule="evenodd" d="M26.0319 27.6956L5.01726 33.9812L3.50464 31.7008L17.4521 14.774L26.0319 27.6956Z" stroke="white" stroke-width="1.78706" stroke-linecap="round" stroke-linejoin="round"/>
<path d="M7.11478 21.0819L6.10688 20.0135C5.83384 19.7243 5.83384 19.2721 6.10688 18.9833L8.81083 16.1285L7.90976 12.3037C7.81824 11.9162 8.04494 11.5248 8.42635 11.4114L12.1941 10.289L13.3165 6.52129C13.4279 6.14485 13.8101 5.91777 14.1938 5.99972L18.0171 6.90882L20.8716 4.20449C21.1611 3.93184 21.6129 3.93184 21.9024 4.20449L24.7565 6.90882L28.5817 6.00738C28.9689 5.91586 29.3606 6.14256 29.474 6.52397L30.5964 10.2921L34.3641 11.4141C34.7501 11.5279 34.9776 11.9254 34.8807 12.3156L33.9854 16.1239L36.6897 18.9784C36.9624 19.2679 36.9624 19.7197 36.6897 20.0089L33.9854 22.8633L34.8945 26.687C34.9868 27.0745 34.7597 27.4674 34.3775 27.5808L30.6098 28.7028L29.4874 32.4709C29.3736 32.8523 28.9811 33.0786 28.5936 32.9864L24.7703 32.0845L21.9158 34.7889C21.6267 35.0619 21.1745 35.0619 20.885 34.7889L20.3427 34.2765" stroke="white" stroke-width="1.78706" stroke-linecap="round" stroke-linejoin="round"/>
</svg>
